<?xml version="1.0" standalone="no"?>
<!DOCTYPE svg PUBLIC "-//W3C//DTD SVG 20010904//EN"
 "http://www.w3.org/TR/2001/REC-SVG-20010904/DTD/svg10.dtd">
<svg version="1.0" xmlns="http://www.w3.org/2000/svg"
 width="714.000000pt" height="472.000000pt" viewBox="0 0 714.000000 472.000000"
 preserveAspectRatio="xMidYMid meet">

<g transform="translate(0.000000,472.000000) scale(0.100000,-0.100000)"
fill="#000000" stroke="none">
<path d="M4425 4607 c-96 -8 -124 -15 -98 -24 29 -10 67 -49 83 -84 l17 -38
30 43 c65 92 206 119 320 60 40 -21 62 -40 75 -65 17 -34 27 -39 106 -64 114
-35 206 -76 308 -136 114 -68 164 -113 59 -54 -99 56 -196 97 -306 128 -149
43 -145 43 -158 4 -6 -18 -25 -47 -41 -62 l-30 -29 132 -22 c249 -42 570 -136
727 -212 42 -20 80 -39 86 -41 17 -7 -58 82 -145 173 -191 199 -388 319 -621
380 -120 31 -149 35 -294 42 -66 3 -127 6 -135 7 -8 2 -60 -1 -115 -6z"/>
<path d="M3980 4506 c-347 -145 -575 -380 -724 -743 -42 -103 -106 -321 -106
-362 0 -11 -17 -24 -49 -38 -63 -26 -108 -93 -150 -218 -52 -159 -66 -244 -66
-415 1 -139 3 -161 25 -215 42 -107 160 -205 267 -222 l35 -6 -27 43 c-23 37
-66 126 -64 133 1 1 -3 19 -9 40 -11 41 -10 181 2 231 4 16 16 49 27 72 14 32
17 53 12 81 -15 77 -8 289 12 388 2 11 7 36 10 55 4 19 15 50 26 68 10 18 30
67 45 110 35 102 92 220 149 309 42 66 51 74 103 93 91 34 267 75 447 104 17
3 61 8 100 11 38 4 73 9 78 12 5 3 7 -3 5 -13 -2 -10 3 -19 10 -20 6 -1 14 -3
17 -4 3 -1 9 -3 14 -4 5 0 13 -4 17 -8 11 -11 24 -10 24 3 0 5 -4 8 -9 5 -5
-3 -14 1 -21 9 -7 8 -16 13 -20 10 -5 -3 -11 -1 -15 5 -3 5 1 10 9 10 9 0 19
0 24 0 4 0 7 -6 7 -12 0 -7 9 -13 21 -13 11 0 28 -6 36 -12 8 -7 19 -9 24 -5
5 4 6 3 2 -2 -4 -5 -3 -17 3 -28 9 -16 13 -17 27 -6 13 11 15 11 10 -3 -4 -9
-1 -16 8 -16 7 0 11 5 8 11 -3 6 1 3 9 -7 9 -10 19 -18 24 -18 4 -1 10 -3 13
-6 3 -4 -1 -3 -7 1 -8 4 -13 1 -13 -8 0 -23 -34 -38 -50 -23 -12 10 -12 9 -2
-4 10 -14 8 -19 -13 -33 -51 -33 -23 -34 33 -1 170 101 415 133 648 85 357
-74 614 -400 614 -780 0 -137 -28 -234 -93 -322 -11 -15 -19 -29 -16 -31 58
-41 83 -66 106 -105 27 -45 28 -53 28 -177 0 -130 0 -132 -35 -200 -66 -131
-228 -272 -395 -344 -39 -17 -65 -30 -59 -31 13 0 168 62 217 86 50 26 175
117 247 179 36 31 77 63 92 71 26 13 29 12 83 -35 41 -36 70 -53 105 -60 97
-21 199 18 259 99 l26 35 -38 -32 c-33 -29 -45 -33 -97 -33 -70 0 -108 26
-134 91 -25 62 -33 165 -14 187 8 9 18 24 22 32 4 8 -1 5 -10 -7 -9 -13 -20
-23 -25 -23 -13 0 0 247 20 380 34 220 92 344 177 381 27 12 54 17 71 14 27
-6 26 -5 -13 32 -34 32 -52 63 -94 168 -55 136 -137 304 -193 392 l-32 52 4
-80 3 -80 -53 21 c-232 86 -720 220 -954 261 -174 31 -549 34 -750 6 -233 -33
-476 -93 -552 -138 l-33 -18 0 26 c0 82 103 192 227 242 43 17 92 39 108 48
17 9 71 37 120 63 89 45 91 46 84 77 -7 38 11 97 42 129 28 30 19 30 -51 0z
m1929 -961 c63 -139 70 -165 44 -165 -14 0 -21 13 -32 58 -7 31 -28 97 -47
146 -57 147 -41 130 35 -39z"/>
<path d="M4220 3983 c0 -9 3 -13 7 -10 3 4 13 1 22 -5 10 -8 9 -4 -3 10 -23
26 -26 27 -26 5z"/>
<path d="M3800 3949 c0 -5 -11 -9 -25 -9 -73 0 -221 -91 -296 -182 l-44 -53
62 56 c116 107 229 153 368 152 86 -1 170 -24 224 -62 37 -26 50 -27 26 -1
-26 28 -127 79 -182 90 -71 14 -133 18 -133 9z"/>
<path d="M3605 3271 c-81 -37 -135 -120 -135 -206 0 -62 19 -103 72 -151 60
-56 121 -77 200 -72 77 5 115 29 154 101 84 155 -26 347 -198 347 -30 0 -70
-8 -93 -19z m229 -83 c35 -31 39 -72 8 -76 -30 -4 -72 33 -72 63 0 42 26 47
64 13z"/>
<path d="M4662 3247 c-113 -42 -188 -200 -138 -295 37 -70 137 -136 223 -148
66 -8 114 8 154 53 43 50 61 97 62 163 1 161 -155 279 -301 227z m203 -102
c27 -26 31 -45 14 -62 -23 -23 -89 25 -89 64 0 32 43 31 75 -2z"/>
<path d="M4132 2899 c-57 -11 -106 -40 -110 -66 -3 -17 4 -21 44 -27 71 -9
282 -7 288 3 10 15 -42 69 -77 79 -51 16 -99 19 -145 11z"/>
<path d="M5864 2633 c2 -18 1 -35 -2 -38 -10 -10 -11 -35 0 -29 5 3 7 9 4 12
-8 7 24 43 33 37 4 -2 7 7 7 19 0 12 -6 23 -13 23 -9 0 -10 -4 -3 -12 7 -9 5
-17 -7 -26 -15 -12 -16 -12 -11 2 3 9 2 22 -3 30 -6 9 -8 4 -5 -18z"/>
<path d="M5924 2638 c4 -24 -18 -60 -31 -50 -3 2 -8 1 -11 -3 -4 -4 0 -5 8 -3
18 4 15 -30 -6 -53 -8 -8 -14 -20 -14 -25 0 -5 5 -1 11 9 6 9 14 15 18 13 4
-3 8 3 9 12 4 36 8 50 19 63 11 14 10 46 -2 57 -3 4 -4 -5 -1 -20z"/>
<path d="M4032 2590 c-29 -6 -68 -16 -87 -24 -30 -13 -35 -20 -35 -48 1 -84
90 -192 205 -249 87 -43 191 -52 251 -21 93 48 187 206 167 282 -10 38 -117
62 -293 66 -85 1 -179 -1 -208 -6z"/>
<path d="M5923 2530 c2 -28 -9 -50 -25 -50 -6 0 -5 7 3 18 11 14 11 15 -1 4
-8 -7 -15 -24 -16 -37 0 -14 1 -23 3 -21 3 2 4 7 4 10 -1 4 9 17 23 29 19 18
22 27 15 47 l-8 25 2 -25z"/>
<path d="M5930 2475 c-13 -14 -18 -25 -11 -25 7 0 10 -4 6 -9 -3 -5 -1 -12 5
-16 6 -4 8 -11 5 -16 -3 -5 1 -6 9 -3 9 3 16 14 16 23 0 14 -2 14 -10 1 -5 -8
-10 -13 -11 -10 0 3 -2 16 -5 29 -4 20 -2 22 10 12 10 -8 16 -9 21 -1 4 6 3
10 -2 9 -20 -3 -25 2 -13 16 20 25 5 17 -20 -10z"/>
<path d="M5970 2393 c0 -6 8 -17 18 -24 16 -13 16 -13 2 6 -8 11 -16 22 -17
24 -2 2 -3 0 -3 -6z"/>
<path d="M3270 2217 c0 -2 15 -16 33 -33 l32 -29 -29 33 c-28 30 -36 37 -36
29z"/>
<path d="M3430 2084 c0 -27 260 -166 411 -219 l77 -27 11 -56 c10 -49 9 -58
-6 -75 -10 -11 -12 -17 -5 -13 6 4 12 2 12 -4 0 -16 -36 -60 -44 -55 -3 3 -4
2 -1 -1 5 -8 -51 -78 -149 -183 l-68 -75 6 -70 c4 -39 13 -125 19 -191 l12
-120 63 0 c34 0 62 3 62 6 0 3 7 48 16 100 20 115 70 286 118 396 l35 83 -24
52 c-16 34 -22 62 -19 82 10 58 10 57 51 42 21 -8 72 -25 113 -36 41 -12 80
-26 86 -31 6 -5 14 -5 18 -1 4 4 7 2 6 -3 -5 -21 0 -36 9 -30 5 3 12 1 16 -5
3 -5 1 -10 -5 -10 -7 0 -6 -5 2 -14 7 -8 16 -12 20 -10 4 2 9 0 13 -6 3 -5 0
-10 -7 -10 -8 0 -9 -3 -3 -8 6 -4 25 -26 43 -49 l32 -41 -31 -27 c-18 -14 -49
-35 -70 -46 -48 -24 -52 -43 -6 -34 66 14 215 69 342 127 71 33 144 66 161 73
l30 14 28 -71 c26 -68 87 -304 101 -397 6 -37 17 -53 62 -95 l55 -50 -32 -26
c-35 -28 -33 -33 25 -63 60 -32 59 -30 31 -85 l-26 -51 30 -16 c33 -17 37 -31
15 -59 -17 -22 -20 -40 -6 -32 5 3 49 8 97 11 247 16 343 45 403 124 24 32 26
41 26 140 0 98 -3 117 -44 241 -54 167 -91 250 -137 307 l-35 43 34 40 c39 46
77 136 112 264 l24 88 -22 -6 c-59 -17 -165 -37 -228 -42 -60 -6 -69 -5 -69
10 0 22 -13 21 -116 -14 -112 -39 -317 -81 -413 -86 -40 -2 -76 -6 -79 -9 -9
-9 -60 -6 -67 4 -3 6 4 8 16 6 14 -3 19 0 16 9 -4 9 2 11 20 8 19 -4 24 -2 18
8 -6 9 -2 9 16 -1 22 -11 23 -11 11 4 -12 14 -10 15 13 11 15 -3 24 -1 21 4
-2 4 5 8 17 9 12 1 31 3 42 6 37 10 170 37 179 37 5 0 7 2 4 5 -3 3 -47 -1
-99 -10 -142 -22 -420 -38 -549 -31 -283 17 -525 77 -706 176 -40 22 -79 40
-85 40 -7 0 -21 7 -31 17 -10 9 -18 12 -18 7z m1803 -319 c-8 -44 -23 -69 -34
-58 -6 6 -4 23 6 46 8 20 15 53 16 74 l1 38 8 -35 c5 -19 6 -48 3 -65z"/>
<path d="M4978 1903 c7 -3 16 -2 19 1 4 3 -2 6 -13 5 -11 0 -14 -3 -6 -6z"/>
<path d="M4938 1893 c7 -3 16 -2 19 1 4 3 -2 6 -13 5 -11 0 -14 -3 -6 -6z"/>
<path d="M4693 1552 c-29 -14 -53 -30 -53 -34 0 -5 10 -3 23 3 12 7 23 11 25
10 9 -9 64 14 72 30 15 26 -2 24 -67 -9z"/>
<path d="M4026 1532 c20 -35 101 -119 108 -111 2 2 -26 36 -61 74 -43 46 -59
59 -47 37z"/>
<path d="M4616 1503 c-6 -14 -5 -15 5 -6 7 7 10 15 7 18 -3 3 -9 -2 -12 -12z"/>
<path d="M3992 766 c-15 -41 -28 -45 -158 -53 -92 -5 -101 -7 -97 -24 3 -10 9
-17 12 -14 4 2 8 -2 8 -10 0 -8 -5 -11 -10 -8 -5 3 -7 0 -5 -8 4 -12 45 -13
235 -10 143 2 232 0 236 -6 5 -8 -400 -298 -434 -311 -4 -2 -11 18 -14 45 -4
26 -8 57 -10 68 -2 11 -4 30 -4 43 -1 15 -5 21 -12 16 -12 -7 -10 -67 7 -335
6 -90 5 -98 -15 -118 -11 -11 -18 -21 -13 -21 10 0 54 30 65 44 5 6 6 63 2
126 l-5 115 240 164 c132 91 240 168 240 172 0 13 -24 15 -172 14 -80 0 -144
3 -141 7 2 5 9 6 14 3 5 -4 9 -1 9 5 0 6 4 9 9 5 5 -3 22 6 38 21 15 14 21 22
13 18 -10 -5 -9 -1 4 14 18 20 18 23 2 47 -22 33 -30 32 -44 -9z"/>
<path d="M4587 783 c-12 -11 -8 -68 6 -87 8 -10 19 -15 30 -11 15 6 15 10 2
35 -8 16 -15 38 -15 50 0 20 -11 26 -23 13z"/>
<path d="M4321 429 c-367 -281 -426 -331 -395 -327 25 4 744 549 740 562 -1 6
-6 11 -12 12 -5 2 -155 -109 -333 -247z"/>
</g>
</svg>
