<?xml version="1.0" standalone="no"?>
<!DOCTYPE svg PUBLIC "-//W3C//DTD SVG 20010904//EN"
 "http://www.w3.org/TR/2001/REC-SVG-20010904/DTD/svg10.dtd">
<svg version="1.0" xmlns="http://www.w3.org/2000/svg"
 width="121.000000pt" height="43.000000pt" viewBox="0 0 121.000000 43.000000"
 preserveAspectRatio="xMidYMid meet">

<g transform="translate(0.000000,43.000000) scale(0.100000,-0.100000)"
fill="#000000" stroke="none">
<path d="M460 329 c0 -71 2 -80 15 -69 11 9 15 32 15 81 0 55 -3 69 -15 69
-12 0 -15 -16 -15 -81z"/>
<path d="M16 323 c-3 -3 -6 -36 -6 -73 0 -77 16 -100 69 -100 26 0 32 4 29 18
-2 10 -11 16 -22 14 -32 -6 -46 17 -46 79 0 54 -9 77 -24 62z"/>
<path d="M117 323 c-9 -8 -9 -116 -1 -137 13 -34 24 -2 24 70 0 68 -6 85 -23
67z"/>
<path d="M226 323 c-3 -3 -6 -29 -6 -58 0 -60 -18 -91 -48 -83 -13 4 -23 0
-26 -9 -9 -22 -8 -23 29 -23 55 0 75 27 75 104 0 60 -8 84 -24 69z"/>
<path d="M286 323 c-3 -3 -6 -35 -6 -70 0 -76 20 -103 75 -103 57 0 75 27 75
111 0 52 -3 70 -12 67 -8 -3 -14 -28 -16 -63 -3 -66 -14 -85 -46 -85 -35 0
-46 20 -46 81 0 54 -9 77 -24 62z"/>
<path d="M557 298 c-40 -26 -47 -35 -47 -63 0 -27 7 -37 40 -59 75 -50 98 -25
24 27 -50 35 -52 28 22 83 20 15 26 25 19 33 -7 7 -25 1 -58 -21z"/>
<path d="M684 320 c-88 -36 -62 -170 33 -170 63 1 100 45 88 106 -9 50 -73 84
-121 64z m82 -55 c22 -33 6 -72 -32 -81 -33 -8 -56 5 -68 39 -21 58 66 94 100
42z"/>
<path d="M890 323 c-41 -15 -50 -35 -50 -105 0 -54 3 -68 15 -68 12 0 15 13
15 58 0 62 11 82 45 82 34 0 45 -20 45 -82 0 -45 3 -58 15 -58 23 0 21 131 -2
153 -21 18 -62 28 -83 20z"/>
<path d="M1059 315 c-15 -8 -30 -26 -33 -41 -8 -31 9 -80 30 -88 17 -6 19 17
4 45 -15 27 4 59 34 59 30 0 48 -22 44 -52 -2 -15 3 -24 15 -26 14 -3 17 4 17
36 0 62 -58 97 -111 67z"/>
<path d="M481 234 c0 -11 3 -14 6 -6 3 7 2 16 -1 19 -3 4 -6 -2 -5 -13z"/>
<path d="M460 185 c0 -24 5 -35 15 -35 10 0 15 10 15 29 0 16 -6 31 -15 35
-12 4 -15 -3 -15 -29z"/>
<path d="M1085 200 c-10 -16 12 -29 36 -23 19 5 27 23 10 23 -5 0 -16 3 -24 6
-8 3 -18 0 -22 -6z"/>
<path d="M1143 174 c-8 -4 -7 -13 5 -34 20 -34 11 -56 -30 -79 -23 -13 -29
-13 -52 2 -14 10 -26 26 -26 37 0 24 -20 37 -30 19 -12 -19 13 -72 41 -86 83
-43 172 46 129 128 -11 19 -16 21 -37 13z"/>
</g>
</svg>
